<svg width="80" height="80" viewBox="0 0 80 80" fill="none" xmlns="http://www.w3.org/2000/svg">
<path d="M55.0066 20.3765H59.2097M20.7969 20.3765H24.9955" stroke="#0db14b" stroke-width="2" stroke-miterlimit="10" stroke-linecap="round" stroke-linejoin="round"/>
<path d="M53.5769 6.79701L50.6094 9.76904" stroke="#0db14b" stroke-width="2" stroke-miterlimit="10" stroke-linecap="round" stroke-linejoin="round"/>
<path d="M26.4219 6.79701L29.3938 9.76904" stroke="#0db14b" stroke-width="2" stroke-miterlimit="10" stroke-linecap="round" stroke-linejoin="round"/>
<path d="M40 1.1717V5.37061" stroke="#0db14b" stroke-width="2" stroke-miterlimit="10" stroke-linecap="round" stroke-linejoin="round"/>
<path d="M25.0995 26.5821L21.4766 52.8027" stroke="white" stroke-width="2" stroke-miterlimit="10" stroke-linecap="round" stroke-linejoin="round"/>
<path d="M73.9364 35.6885H6.07031" stroke="white" stroke-width="2" stroke-miterlimit="10" stroke-linecap="round" stroke-linejoin="round"/>
<path d="M75.5688 44.7988H4.42969" stroke="white" stroke-width="2" stroke-miterlimit="10" stroke-linecap="round" stroke-linejoin="round"/>
<path d="M40 52.8022V26.5816" stroke="white" stroke-width="2" stroke-miterlimit="10" stroke-linecap="round" stroke-linejoin="round"/>
<path d="M58.5214 52.8022L54.8984 26.5816" stroke="white" stroke-width="2" stroke-miterlimit="10" stroke-linecap="round" stroke-linejoin="round"/>
<path d="M40.0048 10.4733C45.4747 10.4733 49.9081 14.9069 49.9081 20.3769C49.9081 22.7242 49.0933 24.8812 47.7245 26.582H40.0048H32.285C30.9164 24.8812 30.1016 22.7242 30.1016 20.3769C30.1016 14.9069 34.535 10.4733 40.0048 10.4733Z" stroke="#F47922" stroke-width="2" stroke-miterlimit="10" stroke-linecap="round" stroke-linejoin="round"/>
<path d="M59.3701 60.3008H74.668C76.6522 60.3008 78.0075 58.9144 77.6931 56.9523L77.2103 53.9052M2.79374 53.9052L2.31093 56.9523C1.99656 58.9144 3.35171 60.3008 5.33609 60.3008H53.9623" stroke="white" stroke-width="2" stroke-miterlimit="10" stroke-linecap="round" stroke-linejoin="round"/>
<path d="M26.5161 72.5919H53.4887C55.1497 72.5919 56.505 73.9472 56.505 75.6038V78.1638C56.505 78.5269 56.2037 78.8281 55.8406 78.8281H24.1687C23.8011 78.8281 23.5 78.5269 23.5 78.1638V75.6038C23.5 73.9472 24.8597 72.5919 26.5161 72.5919Z" stroke="white" stroke-width="2" stroke-miterlimit="10" stroke-linecap="round" stroke-linejoin="round"/>
<path d="M44.0131 66.834V60.3541M35.9922 60.3541L35.9966 66.834" stroke="white" stroke-width="2" stroke-miterlimit="10" stroke-linecap="round" stroke-linejoin="round"/>
<path d="M32.5783 66.8338H47.4244C48.9523 66.8338 50.2058 68.0873 50.2058 69.6154V72.5918H29.7969V69.6154C29.7969 68.0873 31.0503 66.8338 32.5783 66.8338Z" stroke="white" stroke-width="2" stroke-miterlimit="10" stroke-linecap="round" stroke-linejoin="round"/>
<path d="M13.8872 26.5818L9.89219 26.5775C8.59016 26.5951 7.58469 27.5607 7.32781 28.699L2.79688 53.9053H40.0052H77.2134L72.6825 28.699C72.4256 27.5607 71.4203 26.5951 70.1181 26.5775L40.0052 26.5818H19.295" stroke="white" stroke-width="2" stroke-miterlimit="10" stroke-linecap="round" stroke-linejoin="round"/>
</svg>
